<svg xmlns="http://www.w3.org/2000/svg" width="352" height="352" viewBox="0 0 352 352"><circle cx="44.0" cy="44.0" r="44.0" fill="#ffffff" fill-opacity="0.06"/><path d="M132.0 0.0A44.0 44.0 0 0 0 132.0 88.0Z" fill="#ffffff" fill-opacity="0.06"/><path d="M132.0 0.0A44.0 44.0 0 0 1 132.0 88.0Z" fill="#000000" fill-opacity="0.12"/><path d="M176.0 44.0A44.0 44.0 0 0 1 264.0 44.0Z" fill="#ffffff" fill-opacity="0.06"/><path d="M176.0 44.0A44.0 44.0 0 0 0 264.0 44.0Z" fill="#000000" fill-opacity="0.12"/><path d="M308.0 0.0A44.0 44.0 0 0 0 308.0 88.0Z" fill="#000000" fill-opacity="0.12"/><path d="M308.0 0.0A44.0 44.0 0 0 1 308.0 88.0Z" fill="#ffffff" fill-opacity="0.06"/><circle cx="44.0" cy="132.0" r="44.0" fill="#ffffff" fill-opacity="0.06"/><path d="M132.0 88.0A44.0 44.0 0 0 0 132.0 176.0Z" fill="#ffffff" fill-opacity="0.06"/><path d="M132.0 88.0A44.0 44.0 0 0 1 132.0 176.0Z" fill="#000000" fill-opacity="0.12"/><circle cx="220.0" cy="132.0" r="44.0" fill="#000000" fill-opacity="0.12"/><circle cx="308.0" cy="132.0" r="44.0" fill="#ffffff" fill-opacity="0.06"/><path d="M0.0 220.0A44.0 44.0 0 0 1 88.0 220.0Z" fill="#000000" fill-opacity="0.12"/><path d="M0.0 220.0A44.0 44.0 0 0 0 88.0 220.0Z" fill="#ffffff" fill-opacity="0.06"/><path d="M132.0 176.0A44.0 44.0 0 0 0 132.0 264.0Z" fill="#ffffff" fill-opacity="0.06"/><path d="M132.0 176.0A44.0 44.0 0 0 1 132.0 264.0Z" fill="#000000" fill-opacity="0.12"/><path d="M220.0 176.0A44.0 44.0 0 0 0 220.0 264.0Z" fill="#ffffff" fill-opacity="0.06"/><path d="M220.0 176.0A44.0 44.0 0 0 1 220.0 264.0Z" fill="#000000" fill-opacity="0.12"/><circle cx="308.0" cy="220.0" r="44.0" fill="#ffffff" fill-opacity="0.06"/><circle cx="44.0" cy="308.0" r="44.0" fill="#ffffff" fill-opacity="0.06"/><path d="M132.0 264.0A44.0 44.0 0 0 0 132.0 352.0Z" fill="#000000" fill-opacity="0.12"/><path d="M132.0 264.0A44.0 44.0 0 0 1 132.0 352.0Z" fill="#ffffff" fill-opacity="0.06"/><path d="M220.0 264.0A44.0 44.0 0 0 0 220.0 352.0Z" fill="#000000" fill-opacity="0.12"/><path d="M220.0 264.0A44.0 44.0 0 0 1 220.0 352.0Z" fill="#ffffff" fill-opacity="0.06"/><circle cx="308.0" cy="308.0" r="44.0" fill="#ffffff" fill-opacity="0.06"/></svg>
